Coordinates
version=1
nRows=8
nColumns=40
inDegrees=yes

Units are S.I. units (second, meters, Newtons, ...)
Angles are in degrees.

endheader
time	pelvis_tilt	pelvis_list	pelvis_rotation	pelvis_tx	pelvis_ty	pelvis_tz	hip_flexion_r	hip_adduction_r	hip_rotation_r	knee_angle_r	knee_angle_r_beta	ankle_angle_r	subtalar_angle_r	mtp_angle_r	hip_flexion_l	hip_adduction_l	hip_rotation_l	knee_angle_l	knee_angle_l_beta	ankle_angle_l	subtalar_angle_l	mtp_angle_l	lumbar_extension	lumbar_bending	lumbar_rotation	arm_flex_r	arm_add_r	arm_rot_r	elbow_flex_r	pro_sup_r	wrist_flex_r	wrist_dev_r	arm_flex_l	arm_add_l	arm_rot_l	elbow_flex_l	pro_sup_l	wrist_flex_l	wrist_dev_l
     17.04500000	     -3.65601764	     -5.40030557	     -2.34063474	      0.98552584	      0.92378407	      0.48874960	     20.58449495	      2.98267742	    -13.09644812	     18.27973349	     18.27973349	      3.83748077	      0.99468951	     -4.11983231	      8.21709891	    -11.49989576	     -7.42381042	     44.76828720	     44.76828720	     11.06833802	    -17.22504118	     -5.73778411	     -9.79284125	      5.14760948	      1.29435205	     -4.29446723	    -12.69128296	    -11.93090179	     29.87068761	     44.95607779	      0.00000000	      0.00000000	      8.49405925	    -11.30432970	     -6.72030660	     58.50716846	     45.08900545	      0.00000000	      0.00000000
     17.05714286	     -3.69420137	     -5.57667124	     -2.03135537	      0.98511640	      0.92447770	      0.49080646	     19.90675919	      3.24653950	    -13.51312054	     17.88952731	     17.88952731	      4.18665203	      1.34810163	     -4.45867455	     10.61780048	    -12.05104291	     -6.21723503	     49.08089066	     49.08089066	     10.58653969	    -17.52717343	     -1.90392736	     -9.86741347	      5.38661625	      1.44107210	     -3.46339609	    -12.89224211	     -9.27442052	     32.26117449	     44.77762574	      0.00000000	      0.00000000	      8.15230917	    -10.86349299	     -6.71274051	     57.23647803	     45.22053096	      0.00000000	      0.00000000
     17.06928571	     -3.68099416	     -5.85058859	     -1.74358102	      0.98453479	      0.92504201	      0.49283538	     19.21527307	      3.63172935	    -13.86452097	     17.55944792	     17.55944792	      4.58452873	      1.55819307	     -4.58269276	     12.83049021	    -12.73480847	     -5.22243940	     52.80389050	     52.80389050	      8.97583830	    -18.02131139	     -1.40149239	    -10.00915989	      5.72950923	      1.70199464	     -1.98712194	    -12.77620438	     -9.01477583	     33.14072250	     44.74576966	      0.00000000	      0.00000000	      7.62745230	    -10.48457081	     -6.50849227	     56.66612370	     45.20786845	      0.00000000	      0.00000000
     17.08142857	     -3.79636698	     -5.97249183	     -1.40089568	      0.98365187	      0.92536093	      0.49445877	     18.69879287	      3.80344549	    -14.31079097	     17.24687814	     17.24687814	      4.84424864	      1.90600865	     -5.09156225	     15.45283459	    -12.93375040	     -3.81439440	     56.68566081	     56.68566081	      9.80021130	    -17.81576167	      5.06172773	     -9.98367016	      5.92470746	      1.81847843	     -1.38642075	    -13.30823435	     -6.00857381	     36.60602362	     44.53661318	      0.00000000	      0.00000000	      7.53911982	    -10.04948893	     -6.48907340	     54.41009760	     45.33115171	      0.00000000	      0.00000000
     17.09357143	     -3.86090984	     -6.19585525	     -1.05819507	      0.98267550	      0.92562659	      0.49612076	     18.15597776	      4.12381071	    -14.60694404	     16.96839278	     16.96839278	      5.19087137	      1.97724721	     -5.19110375	     17.73564363	    -13.31583749	     -2.71136907	     59.62146013	     59.62146013	      8.66906063	    -18.11894845	      5.41990802	    -10.04080706	      6.19271111	      1.88795295	      0.22753741	    -13.26823364	     -5.80317246	     37.70306206	     44.50483482	      0.00000000	      0.00000000	      6.90839639	     -9.80962146	     -6.29124690	     53.67276378	     45.31673485	      0.00000000	      0.00000000
     17.10571429	     -3.93519122	     -6.35470922	     -0.71309884	      0.98158622	      0.92588339	      0.49765949	     17.65067574	      4.37634423	    -14.84563584	     16.71707905	     16.71707905	      5.56362386	      1.97073553	     -5.30592868	     19.96677949	    -13.53175065	     -1.65113916	     62.07477293	     62.07477293	      7.98582373	    -18.29268412	      6.02028825	    -10.10378841	      6.34957355	      1.87916240	      1.83143736	    -13.25863169	     -5.53315966	     39.08154702	     44.45888950	      0.00000000	      0.00000000	      6.29547539	     -9.61340582	     -6.13370721	     52.68662396	     45.30175336	      0.00000000	      0.00000000
     17.11785714	     -4.01515037	     -6.37356877	     -0.36346654	      0.98032523	      0.92615008	      0.49883590	     17.19941318	      4.46435547	    -14.98888674	     16.50462383	     16.50462383	      5.76064402	      1.86271251	     -5.74135255	     22.29014103	    -13.36659624	     -0.50697901	     64.31771051	     64.31771051	      8.97414383	    -18.07313429	     10.41160028	    -10.15144236	      6.46522794	      2.25067403	      2.14898393	    -14.18592231	     -2.65428240	     43.81250486	     44.22856712	      0.00000000	      0.00000000	      6.60776657	     -9.08013137	     -6.27572719	     49.58028156	     45.39906809	      0.00000000	      0.00000000
     17.13000000	     -4.00767242	     -6.37738735	     -0.04660528	      0.97910920	      0.92661589	      0.50008311	     16.66254329	      4.55132194	    -15.07419881	     16.33175769	     16.33175769	      6.12691010	      1.79500739	     -5.80886533	     24.19940329	    -13.29729466	      0.27803981	     65.61732825	     65.61732825	      8.63282414	    -18.16397854	     10.33560758	    -10.35984700	      6.45354323	      2.57078782	      3.84847082	    -14.26558318	     -2.65400233	     44.80464515	     44.20905191	      0.00000000	      0.00000000	      6.00132155	     -8.83128653	     -6.13178713	     49.02398438	     45.38138566	      0.00000000	      0.00000000
